<svg width="941" height="827" viewBox="0 0 941 827" fill="none" xmlns="http://www.w3.org/2000/svg">
<path d="M452.346 462.744L452.345 462.74C451.408 457.993 452.071 454.663 453.591 452.269C455.119 449.86 457.588 448.281 460.486 447.188C463.387 446.094 466.645 445.513 469.672 445.052C470.177 444.975 470.677 444.902 471.169 444.829C473.581 444.474 475.805 444.147 477.368 443.619L477.368 443.619L477.378 443.615C482.695 441.731 487.979 442.474 493.391 443.234C493.543 443.256 493.694 443.277 493.847 443.299C499.356 444.071 505.011 444.786 510.546 442.252L510.546 442.252L510.559 442.246C515.019 440.103 520.334 440.787 525.027 443.907C525.965 444.736 527.012 445.679 527.689 447.019C528.605 448.961 528.557 451.258 527.922 453.338C527.285 455.423 526.097 457.163 524.887 458.018C523.62 458.796 522.206 459.145 520.652 459.459C520.453 459.499 520.252 459.539 520.049 459.579C518.685 459.847 517.22 460.136 515.82 460.732L515.815 460.734C513.427 461.773 511.36 463.751 509.478 466.034C507.998 467.829 506.589 469.869 505.21 471.865C504.834 472.408 504.461 472.949 504.089 473.481C502.333 475.989 500.605 478.301 498.758 479.967C496.918 481.627 495.035 482.578 492.961 482.507L492.952 482.507L492.943 482.506C490.128 482.477 487.468 480.568 484.625 478.189C484.234 477.862 483.84 477.526 483.442 477.188C482.433 476.329 481.406 475.455 480.377 474.672C478.937 473.577 477.431 472.61 475.844 472.051L475.842 472.051C473.516 471.236 471.21 471.329 468.998 471.575C468.425 471.639 467.863 471.712 467.308 471.784C465.674 471.997 464.1 472.201 462.49 472.138L462.472 472.138L462.453 472.138C458.374 472.181 453.583 469.203 452.346 462.744Z" stroke="url(#paint0_linear_0_7)" stroke-opacity="0.5" stroke-width="1.5" stroke-miterlimit="10"/>
<path d="M515.882 478.769L515.878 478.776C515.041 480.162 514.195 481.655 513.323 483.195C511.829 485.832 510.258 488.607 508.521 491.214C505.778 495.33 502.756 498.804 499.275 500.379C496.058 501.809 492.914 501.405 489.598 500.101C486.863 498.988 484.256 497.053 481.57 494.732C480.346 493.675 479.116 492.548 477.855 491.392C477.735 491.281 477.614 491.171 477.493 491.06C476.11 489.793 474.688 488.497 473.21 487.245C470.606 484.945 467.963 483.03 465.104 482.035C461.883 480.727 458.635 480.53 455.344 480.673C453.846 480.738 452.325 480.875 450.792 481.012C450.641 481.026 450.49 481.039 450.339 481.053C448.646 481.204 446.935 481.349 445.181 481.4L445.181 481.4L445.174 481.4C435.446 481.778 427.611 474.006 425.597 462.379C424.922 458.478 424.699 454.779 424.923 451.28C425.381 446.087 426.524 440.446 428.635 435.698C430.75 430.941 433.792 427.178 437.993 425.564C438.851 425.236 439.897 425.215 441.115 425.413C442.331 425.609 443.643 426.009 445.007 426.454C445.238 426.53 445.472 426.607 445.706 426.684C446.831 427.055 447.981 427.434 449.074 427.704C450.391 428.03 451.718 428.222 452.917 428.022L452.917 428.022L452.929 428.02C455.511 427.548 457.984 427.031 460.362 426.534C464.76 425.615 468.837 424.762 472.693 424.386L472.7 424.385L472.708 424.384C477.936 423.764 482.929 422.298 487.795 420.869C488.352 420.706 488.907 420.543 489.461 420.382C494.879 418.804 500.163 417.397 505.614 417.284C508.089 417.237 510.679 418.322 513.455 419.557C513.599 419.621 513.744 419.686 513.889 419.751C516.451 420.893 519.166 422.104 521.847 422.286C522.847 422.467 523.629 422.416 524.606 422.108L524.618 422.105L524.629 422.1C531.957 419.525 539.616 421.597 546.029 426.851L546.037 426.858L546.046 426.865C547.825 428.237 549.419 430.04 550.649 432.731L550.715 432.876L550.834 432.981C550.835 432.982 550.836 432.982 550.836 432.983L550.838 433.009L550.88 433.117C552.395 437.057 552.315 441.728 551.263 445.88C550.206 450.052 548.208 453.548 546.052 455.213L546.041 455.221L546.031 455.23C544.148 456.797 542.044 457.509 539.804 458.055C539.252 458.189 538.684 458.314 538.108 458.441C536.396 458.819 534.609 459.213 532.93 459.915C531.607 460.446 530.47 460.978 529.34 461.75C526.448 463.656 524.041 466.378 521.887 469.369C520.193 471.722 518.63 474.28 517.108 476.77C516.697 477.443 516.289 478.111 515.882 478.769Z" stroke="url(#paint1_linear_0_7)" stroke-opacity="0.5" stroke-width="1.5" stroke-miterlimit="10"/>
<path d="M500.762 520.03L500.751 520.034C495.602 521.813 490.841 520.241 486.297 517.672C482.693 515.613 479.337 512.656 475.944 509.346C474.733 508.164 473.511 506.932 472.274 505.684C470.074 503.465 467.822 501.193 465.481 499.057C462.112 495.87 458.568 493.593 455.061 491.993L455.052 491.989L455.043 491.985C450.788 490.176 446.468 489.818 442.052 489.945C439.846 490.008 437.603 490.193 435.331 490.383L435.201 490.394C432.965 490.58 430.699 490.77 428.375 490.856C412.449 491.389 401.859 478.936 399.085 462.224C398.281 456.289 397.709 450.406 398.253 444.917L398.253 444.917L398.253 444.908C398.906 437.338 400.181 428.229 402.926 420.377C405.68 412.502 409.85 406.07 416.17 403.568C417.34 403.133 418.886 403.294 420.768 403.901C422.634 404.504 424.686 405.496 426.802 406.551C427.026 406.662 427.25 406.775 427.475 406.887C429.355 407.827 431.269 408.784 433.059 409.476C435.046 410.244 437.017 410.743 438.717 410.45L438.725 410.448C442.257 409.799 445.678 409.035 449.003 408.292C450.768 407.898 452.506 407.51 454.219 407.148C459.182 406.1 463.98 405.262 468.804 405.079C476.761 404.824 484.159 401.479 491.368 398.108C491.642 397.98 491.915 397.853 492.187 397.725C499.165 394.458 505.981 391.267 513.184 390.622L513.188 390.621C514.591 390.488 516.128 390.928 517.801 391.779C519.47 392.628 521.2 393.847 522.975 395.18C523.505 395.578 524.041 395.987 524.579 396.399C525.823 397.349 527.08 398.31 528.313 399.163C530.079 400.387 531.87 401.445 533.625 401.991C534.835 402.39 536.114 402.582 537.4 402.243L537.428 402.236L537.454 402.227C548.031 398.572 558.677 402.208 567.239 409.562C569.763 411.792 572.077 414.446 573.843 418.646L574.049 419.136L574.113 419.133C576.269 424.91 576.207 431.825 574.78 437.975C573.34 444.177 570.552 449.434 567.447 451.926L567.439 451.932L567.432 451.939C564.597 454.339 561.51 455.388 558.255 456.217C557.576 456.39 556.885 456.554 556.187 456.719C553.573 457.34 550.852 457.986 548.221 459.224L548.213 459.228L548.205 459.232C546.667 460.002 544.894 461.022 543.35 462.269C536.128 468.011 530.983 477.288 526.382 485.582C525.883 486.482 525.39 487.371 524.902 488.242L524.899 488.247C523.898 490.065 522.869 492.069 521.793 494.167C519.695 498.255 517.414 502.699 514.801 506.808C510.85 513.022 506.285 518.212 500.762 520.03Z" stroke="url(#paint2_linear_0_7)" stroke-opacity="0.5" stroke-width="1.5" stroke-miterlimit="10"/>
<path d="M370.864 438.906C370.21 446.496 370.693 454.462 372.063 462.373C375.622 484.365 389.215 502.862 411.602 501.062C413.197 500.936 414.764 500.797 416.306 500.66C426.555 499.75 435.697 498.939 444.452 502.848C448.803 504.805 452.985 507.661 457.247 511.844M370.864 438.906L371.612 438.971M370.864 438.906L371.612 438.971C371.612 438.971 371.612 438.971 371.612 438.971M370.864 438.906C372.57 419.261 376.491 388.377 394.118 381.536C398.01 380.015 404.055 383.526 410.034 386.998C415.421 390.127 420.755 393.224 424.411 392.582C429.298 391.688 433.972 390.582 438.539 389.501C447.557 387.367 456.158 385.331 465.171 385.228C475.779 385.18 485.544 379.647 495.278 374.132C503.729 369.344 512.157 364.57 521.092 363.409L457.247 511.844M371.612 438.971C370.964 446.487 371.441 454.386 372.802 462.245L372.803 462.253L372.803 462.253C374.566 473.144 378.806 483.116 385.321 490.129C391.819 497.122 400.595 501.195 411.542 500.314L411.543 500.314C413.124 500.19 414.683 500.051 416.223 499.914C426.454 499.002 435.811 498.168 444.758 502.163L444.76 502.164C449.197 504.16 453.447 507.066 457.762 511.299M371.612 438.971C372.464 429.153 373.866 416.59 377.238 405.64C380.622 394.65 385.918 385.523 394.39 382.235L394.391 382.235C395.963 381.621 398.066 381.939 400.616 382.932C403.138 383.914 405.921 385.482 408.77 387.132C409.066 387.303 409.362 387.476 409.659 387.648C412.199 389.123 414.766 390.614 417.152 391.703C419.79 392.908 422.369 393.702 424.54 393.32L424.546 393.319C429.452 392.423 434.159 391.309 438.737 390.225C440.957 389.7 443.147 389.182 445.315 388.699C451.973 387.216 458.468 386.055 465.177 385.978C475.308 385.931 484.643 380.994 493.722 375.874C494.355 375.518 494.986 375.16 495.617 374.803C504.102 369.997 512.403 365.295 521.185 364.154C522.864 363.957 524.719 364.615 526.754 365.913C528.781 367.205 530.884 369.065 533.037 371.11C533.801 371.835 534.574 372.587 535.349 373.342C536.736 374.691 538.132 376.048 539.501 377.281C541.64 379.206 543.798 380.905 545.909 381.888L545.94 381.902L545.973 381.914L546.002 381.924C546.779 382.202 547.62 382.503 548.436 382.662C549.262 382.823 550.143 382.857 550.979 382.527C564.59 377.813 577.984 382.821 588.92 392.479C592.139 395.322 595.382 398.999 597.464 404.671C597.486 404.787 597.523 404.884 597.556 404.957C597.596 405.048 597.645 405.131 597.673 405.18L597.678 405.188C597.693 405.214 597.703 405.232 597.71 405.245C597.711 405.247 597.712 405.249 597.713 405.25L597.715 405.284L597.748 405.379C600.4 413.155 600.258 422.4 598.415 430.608C596.567 438.84 593.045 445.87 589.093 449.3L589.088 449.305C585.312 452.642 581.196 454.03 576.9 455.116C576.074 455.324 575.237 455.522 574.394 455.722C570.887 456.553 567.265 457.411 563.789 459.179L563.771 459.188L563.754 459.197L563.724 459.215C561.596 460.442 559.394 461.711 557.438 463.424C552.143 467.703 547.873 473.48 544.134 479.616C541.592 483.789 539.272 488.17 537.045 492.378C536.001 494.349 534.978 496.282 533.961 498.138L533.961 498.138C532.667 500.5 531.326 503.152 529.91 505.952C527.214 511.284 524.247 517.152 520.822 522.573C515.602 530.835 509.482 537.769 501.997 539.935C495.317 541.821 488.702 539.062 482.951 535.228C478.493 532.218 474.398 528.244 470.304 524.001C469.316 522.977 468.327 521.936 467.333 520.89C464.23 517.625 461.08 514.31 457.762 511.299M457.762 511.299C457.758 511.296 457.755 511.292 457.751 511.289L457.247 511.844M457.762 511.299C457.766 511.302 457.769 511.306 457.773 511.309L457.247 511.844" stroke="url(#paint3_linear_0_7)" stroke-opacity="0.5" stroke-width="1.5" stroke-miterlimit="10"/>
<path d="M503.429 559.609L503.432 559.608C512.887 557.207 520.562 548.475 527.02 538.08C531.3 531.192 534.97 523.709 538.252 517.015C539.922 513.61 541.492 510.409 542.991 507.594M503.429 559.609L543.654 507.944M503.429 559.609C494.78 561.841 486.534 557.87 479.587 552.776C474.282 548.815 469.452 543.827 464.598 538.572C463.732 537.633 462.864 536.687 461.993 535.736C458 531.378 453.934 526.94 449.555 522.899C444.308 517.844 439.351 514.309 433.989 511.92L433.987 511.919C422.733 506.931 410.871 508.035 397.408 509.288C396.374 509.384 395.33 509.482 394.277 509.577L394.276 509.577C380.351 510.857 369.343 505.701 361.26 496.865C353.157 488.008 347.977 475.429 345.831 461.894C344.345 452.019 343.53 442.147 344.498 432.629L344.498 432.624L344.501 432.597C345.658 420.415 347.182 404.36 351.146 390.298C355.125 376.178 361.487 364.349 372.117 360.268C374.107 359.521 376.783 360.047 379.999 361.456C383.182 362.851 386.7 365.019 390.283 367.278C390.612 367.485 390.942 367.694 391.272 367.902C394.51 369.948 397.774 372.01 400.791 373.517C404.083 375.161 407.261 376.242 409.891 375.776C416.118 374.701 422.095 373.236 427.951 371.8C430.514 371.172 433.055 370.549 435.582 369.967C443.91 368.05 452.157 366.564 460.871 366.695C473.171 366.97 484.381 360.448 495.299 353.555C496.234 352.964 497.167 352.371 498.098 351.779C508.125 345.405 517.977 339.141 528.503 337.504L528.506 337.504C530.467 337.192 532.658 338.054 535.084 339.811C537.493 341.557 540.001 344.088 542.561 346.872C543.52 347.915 544.49 348.998 545.463 350.083C547.061 351.866 548.665 353.656 550.237 355.289C552.77 357.92 555.31 360.242 557.778 361.601L557.797 361.611L557.816 361.621C559.878 362.605 561.717 363.31 563.771 362.664L563.781 362.661L563.79 362.658C580.677 356.849 597.054 363.226 610.137 375.195L610.147 375.204C614.066 378.665 618.027 383.182 620.648 390.368M503.429 559.609L558.139 360.944M542.991 507.594C542.992 507.593 542.992 507.592 542.993 507.592L543.654 507.944M542.991 507.594C542.991 507.595 542.991 507.595 542.99 507.595L543.654 507.944M542.991 507.594C544.079 505.522 545.18 503.37 546.304 501.172C549.082 495.739 552.004 490.026 555.23 484.56C559.765 476.877 564.944 469.605 571.275 464.153M543.654 507.944C544.75 505.857 545.856 503.696 546.983 501.492C553.658 488.438 561.087 473.911 571.774 464.714M571.275 464.153C571.272 464.156 571.269 464.159 571.265 464.162L571.774 464.714M571.275 464.153C573.649 461.967 576.27 460.225 579.11 458.703C583.539 456.249 588.182 455.134 592.699 454.05C593.566 453.841 594.429 453.634 595.285 453.419C600.629 452.074 605.783 450.4 610.507 446.231L610.511 446.227C615.413 441.964 619.723 433.224 621.951 422.97C624.173 412.741 624.287 401.163 620.951 391.315L620.919 391.22L620.916 391.178M571.275 464.153C571.278 464.151 571.281 464.148 571.285 464.145L571.774 464.714M571.774 464.714L620.916 391.178M558.139 360.944C560.204 361.929 561.797 362.499 563.546 361.949C580.783 356.019 597.439 362.561 610.643 374.642C614.644 378.175 618.711 382.814 621.386 390.202M558.139 360.944C554.314 358.837 550.19 354.235 546.037 349.6M558.139 360.944L546.037 349.6M621.386 390.202L620.637 390.248C620.64 390.289 620.643 390.329 620.648 390.368M621.386 390.202C621.402 390.462 621.489 390.64 621.561 390.788C621.612 390.893 621.656 390.982 621.661 391.074L621.386 390.202ZM620.648 390.368C620.684 390.665 620.778 390.888 620.851 391.042C620.882 391.108 620.897 391.137 620.908 391.16C620.911 391.166 620.914 391.172 620.916 391.178M620.648 390.368L620.916 391.178M546.037 349.6C539.936 342.79 533.77 335.909 528.388 336.763L546.037 349.6Z" stroke="url(#paint4_linear_0_7)" stroke-opacity="0.5" stroke-width="1.5" stroke-miterlimit="10"/>
<path d="M551.817 517.278L551.815 517.281C550.172 520.468 548.445 524.087 546.605 527.943C542.708 536.114 538.3 545.352 533.094 553.815C525.428 566.277 516.194 576.762 504.655 579.517C494.456 581.853 484.586 576.878 476.213 570.318C470.065 565.407 464.504 559.458 458.952 553.247C457.912 552.083 456.872 550.91 455.828 549.733C451.314 544.641 446.737 539.477 441.816 534.704C435.842 528.795 429.956 524.652 423.908 521.862L423.901 521.858C409.947 515.603 395.375 517.043 378.294 518.73C378.015 518.757 377.736 518.785 377.457 518.812L377.456 518.812C360.553 520.492 347.367 514.249 337.755 503.594C328.121 492.915 322.06 477.779 319.537 461.708C317.709 449.86 316.772 437.993 317.843 426.465L317.843 426.46C317.875 426.093 317.907 425.722 317.939 425.349C319.172 411.056 320.802 392.15 325.248 375.451C329.823 358.264 337.305 343.716 350.097 338.729C352.512 337.848 355.763 338.588 359.643 340.413C363.486 342.221 367.737 344.99 372.053 347.857C372.419 348.1 372.785 348.344 373.151 348.587C377.085 351.206 381.042 353.839 384.688 355.764C388.635 357.848 392.409 359.212 395.493 358.66L395.497 358.659C402.677 357.338 409.561 355.589 416.301 353.877C419.711 353.011 423.084 352.154 426.441 351.367C436.465 349.015 446.417 347.259 457.032 347.606L457.036 347.606C471.366 347.984 484.386 339.891 497.116 331.253C498.279 330.464 499.439 329.67 500.598 328.878C512.217 320.932 523.696 313.082 536.04 310.841L536.045 310.84C538.302 310.413 540.836 311.473 543.646 313.674C546.433 315.858 549.336 319.041 552.288 322.551C553.526 324.022 554.781 325.561 556.035 327.1C557.74 329.192 559.445 331.283 561.108 333.205C564 336.548 566.875 339.512 569.634 341.302C572.058 343.003 574.327 343.664 576.594 343.016L576.614 343.01L576.633 343.004C596.566 336.124 616.155 344.074 631.375 358.139C636.027 362.454 640.712 367.823 643.871 376.541C643.889 376.646 643.918 376.737 643.94 376.8C643.973 376.898 644.014 377 644.045 377.077C644.08 377.163 644.104 377.224 644.121 377.275C644.126 377.289 644.129 377.3 644.132 377.307L644.136 377.378L644.168 377.473C648.179 389.279 648.04 403.19 645.412 415.472C642.779 427.78 637.683 438.289 631.938 443.379C626.158 448.501 619.912 450.518 613.499 452.121C612.488 452.374 611.47 452.617 610.449 452.861C605.026 454.155 599.494 455.475 594.235 458.457C590.944 460.238 587.915 462.45 585.135 464.863L585.133 464.865C577.531 471.507 571.441 480.34 566.139 489.627C562.694 495.66 559.558 501.93 556.557 507.931C554.947 511.15 553.376 514.292 551.817 517.278Z" stroke="url(#paint5_linear_0_7)" stroke-opacity="0.5" stroke-width="1.5" stroke-miterlimit="10"/>
<path d="M653.603 440.738L653.607 440.734C660.301 434.811 666.182 422.536 669.22 408.175C672.253 393.841 672.418 377.594 667.841 363.821L667.81 363.728L667.804 363.63C667.799 363.542 667.778 363.481 667.713 363.318L667.706 363.303C667.648 363.159 667.56 362.941 667.526 362.656C663.831 352.427 658.428 346.214 653.053 341.053C635.464 324.689 613.124 315.362 590.148 323.307C587.594 324.239 584.804 323.073 582.209 321.206C579.095 318.993 575.835 315.398 572.546 311.348C570.647 309.009 568.705 306.476 566.764 303.942C565.35 302.097 563.936 300.252 562.538 298.482C559.194 294.247 555.906 290.392 552.761 287.723C549.589 285.032 546.738 283.7 544.226 284.141C536.482 285.649 529.009 289.207 521.623 293.714C515.706 297.324 509.882 301.52 504.033 305.733C502.573 306.785 501.111 307.838 499.646 308.883C485.049 319.298 470.11 328.967 453.626 328.269L453.624 328.269C441.109 327.706 429.4 329.789 417.677 332.577C413.923 333.469 410.16 334.436 406.367 335.411C398.35 337.472 390.202 339.566 381.732 341.061M653.603 440.738L381.599 340.323M653.603 440.738C646.982 446.685 639.757 449.039 632.301 450.928C631.139 451.222 629.97 451.505 628.795 451.79C622.468 453.323 616 454.89 609.823 458.401C606.1 460.431 602.431 463.128 599.228 466.015C590.477 473.836 583.418 484.112 577.289 494.922C572.937 502.595 569.034 510.575 565.327 518.156C563.817 521.244 562.339 524.265 560.876 527.173C559.051 530.76 557.124 534.849 555.063 539.223C550.56 548.777 545.42 559.684 539.314 569.651C530.408 584.19 519.611 596.428 506.089 599.416C493.919 602.094 482.404 595.682 472.829 587.852C465.851 582.105 459.617 575.145 453.418 567.917C452.359 566.683 451.301 565.44 450.24 564.194C445.106 558.163 439.914 552.065 434.294 546.492M653.603 440.738L433.763 547.021M381.732 341.061C381.731 341.061 381.73 341.061 381.73 341.061L381.599 340.323M381.732 341.061C381.732 341.061 381.732 341.061 381.732 341.061L381.599 340.323M381.732 341.061C379.945 341.382 377.964 341.116 375.88 340.472C373.791 339.825 371.551 338.783 369.225 337.501C365.024 335.185 360.46 332.037 355.909 328.897C355.427 328.565 354.945 328.232 354.464 327.901C349.416 324.426 344.433 321.072 339.935 318.892C335.395 316.692 331.574 315.804 328.741 316.923L328.736 316.925C321.263 319.811 315.372 325.574 310.692 333.188C306.01 340.805 302.565 350.234 299.976 360.374C295.144 379.295 293.323 400.548 291.928 416.834C291.827 418.008 291.729 419.156 291.632 420.275M381.599 340.323C375.409 341.438 365.928 334.897 356.331 328.277C345.773 320.994 335.075 313.615 328.466 316.225C298.813 327.677 294.071 383.03 291.181 416.761C291.08 417.938 290.982 419.088 290.884 420.21M291.632 420.275C291.632 420.275 291.632 420.275 291.632 420.275L290.884 420.21M291.632 420.275L290.884 420.21M291.632 420.275C290.459 433.812 291.53 447.895 293.466 461.515M290.884 420.21C289.704 433.828 290.784 447.975 292.724 461.626M292.724 461.626L293.465 461.51C293.466 461.512 293.466 461.514 293.466 461.515M292.724 461.626C298.553 499.025 320.656 532.996 360.952 529.001M292.724 461.626L293.467 461.52C293.467 461.519 293.466 461.517 293.466 461.515M293.466 461.515C296.366 480.119 303.306 497.809 314.473 510.337C325.617 522.84 340.986 530.226 360.876 528.255M360.952 529.001L360.874 528.255C360.874 528.255 360.875 528.255 360.876 528.255M360.952 529.001C381.093 526.893 397.697 525.222 413.505 532.481M360.952 529.001L360.878 528.255C360.877 528.255 360.876 528.255 360.876 528.255M360.876 528.255C380.974 526.152 397.791 524.44 413.818 531.799M413.505 532.481L413.816 531.799C413.817 531.799 413.817 531.799 413.818 531.799M413.505 532.481C420.377 535.618 427.121 540.317 433.763 547.021M413.505 532.481L413.818 531.799M413.818 531.799C420.78 534.978 427.596 539.732 434.294 546.492M433.763 547.021L434.291 546.489C434.292 546.49 434.293 546.491 434.294 546.492M433.763 547.021L434.296 546.493C434.295 546.493 434.295 546.492 434.294 546.492" stroke="url(#paint6_linear_0_7)" stroke-opacity="0.5" stroke-width="1.5" stroke-miterlimit="10"/>
<path d="M507.292 619.106L507.283 619.108C493.583 622.1 480.216 614.48 469.448 605.389C461.629 598.692 454.663 590.719 447.706 582.507C446.865 581.515 446.025 580.519 445.183 579.521C439.07 572.279 432.887 564.954 426.098 558.31C418.467 550.728 410.947 545.348 403.064 541.778C385.196 533.419 366.379 535.252 343.62 537.517L343.613 537.517C320.751 540 303.147 531.53 290.416 517.181C277.661 502.805 269.782 482.504 266.506 461.367L266.506 461.364C263.994 445.566 262.801 429.495 264.297 413.943L264.297 413.94C264.508 411.669 264.72 409.29 264.94 406.821C266.553 388.748 268.594 365.877 273.676 345.334C276.563 333.662 280.422 322.785 285.715 313.99C291.007 305.198 297.706 298.529 306.263 295.19L306.266 295.188C307.825 294.572 309.684 294.527 311.828 294.98C313.971 295.432 316.35 296.374 318.906 297.671C324.023 300.268 329.725 304.224 335.507 308.308C335.965 308.631 336.423 308.954 336.881 309.278C342.19 313.034 347.526 316.808 352.424 319.573C355.086 321.076 357.645 322.296 360.024 323.055C362.397 323.812 364.64 324.128 366.651 323.764C376.432 322.035 385.804 319.577 395.019 317.16C399.325 316.031 403.597 314.911 407.861 313.878C421.281 310.627 434.693 308.22 449.11 309L449.114 309C467.737 309.904 484.537 298.667 500.975 286.505C502.66 285.259 504.341 284.002 506.021 282.747C512.571 277.851 519.101 272.971 525.74 268.763C534.076 263.481 542.528 259.297 551.311 257.506C554.187 256.939 557.405 258.493 560.956 261.646C564.477 264.771 568.14 269.302 571.864 274.278C573.381 276.306 574.913 278.414 576.446 280.523C578.651 283.556 580.857 286.593 583.025 289.397C586.701 294.151 590.356 298.36 593.882 300.941C596.777 303.278 599.764 304.387 602.728 303.455L602.737 303.452L602.747 303.448C628.999 294.412 654.335 305.332 674.061 323.794C680.158 329.594 686.526 336.877 690.523 348.465L690.547 348.534L690.583 348.596C690.66 348.729 690.708 348.87 690.779 349.097L690.786 349.117C690.846 349.308 690.926 349.563 691.067 349.824C696.297 365.542 696.157 384.09 692.751 400.451C689.336 416.862 682.671 430.904 675.026 437.66L675.018 437.668C667.454 444.558 659.193 447.251 650.696 449.397C649.373 449.731 648.043 450.052 646.707 450.375C639.497 452.115 632.149 453.888 625.152 457.922C620.806 460.427 616.705 463.369 613.074 466.737C603.172 475.738 595.203 487.512 588.278 499.866C583.521 508.352 579.236 517.151 575.156 525.53C573.3 529.342 571.486 533.066 569.689 536.635C567.54 540.871 565.277 545.733 562.854 550.937C557.822 561.744 552.103 574.028 545.296 585.253C535.209 601.889 522.907 615.877 507.292 619.106Z" stroke="url(#paint7_linear_0_7)" stroke-opacity="0.5" stroke-width="1.5" stroke-miterlimit="10"/>
<path d="M466.05 622.703L466.046 622.699C457.395 615.163 449.705 606.289 442.052 597.149C440.975 595.862 439.898 594.57 438.82 593.275C432.25 585.39 425.613 577.425 418.356 570.113C409.984 561.455 401.533 555.466 392.962 551.495L392.959 551.494C373.043 542.374 352.004 544.117 326.802 546.752L326.8 546.752C300.949 549.527 281.16 539.913 266.896 523.715C252.609 507.489 243.851 484.632 240.199 460.962L240.198 460.957C237.344 443.183 236.03 425.119 237.627 407.56C237.888 404.719 238.149 401.724 238.421 398.603C240.181 378.388 242.4 352.913 247.94 329.983C251.136 316.752 255.429 304.412 261.352 294.445C267.272 284.481 274.794 276.931 284.437 273.194C286.212 272.509 288.325 272.484 290.752 273.027C293.179 273.571 295.869 274.672 298.755 276.177C304.531 279.188 310.967 283.745 317.482 288.437C317.977 288.793 318.473 289.151 318.968 289.508C324.973 293.838 331 298.184 336.524 301.368C339.517 303.092 342.388 304.491 345.051 305.363C347.709 306.234 350.213 306.598 352.448 306.192C363.187 304.273 373.525 301.547 383.723 298.859C388.721 297.541 393.684 296.233 398.645 295.032C413.765 291.374 428.941 288.693 445.262 289.69L445.263 289.69C465.922 290.919 484.587 278.17 502.866 264.261C504.856 262.747 506.842 261.219 508.826 259.691C515.992 254.175 523.14 248.673 530.405 243.904C539.676 237.819 549.076 232.969 558.84 230.843L558.84 230.843C561.967 230.16 565.495 231.921 569.405 235.523C573.277 239.091 577.322 244.278 581.439 249.981C583.14 252.338 584.858 254.789 586.577 257.243C588.993 260.691 591.412 264.142 593.789 267.338C597.864 272.816 601.909 277.673 605.795 280.676L605.801 280.681C609.071 283.15 612.35 284.775 615.584 283.57C645.106 273.453 673.415 285.745 695.28 306.512C702.102 313.161 709.191 321.29 713.727 334.402L713.75 334.471L713.787 334.533C713.864 334.666 713.911 334.807 713.983 335.033L713.989 335.054C714.049 335.244 714.129 335.498 714.269 335.759C720.072 353.552 719.847 374.383 716.006 392.741C712.154 411.148 704.702 426.909 696.216 434.606C687.694 442.22 678.393 445.199 668.852 447.604C667.451 447.956 666.044 448.297 664.633 448.639C656.459 450.618 648.149 452.629 640.253 457.231C635.457 459.996 631.163 463.399 626.918 467.227L626.912 467.232C615.855 477.414 606.978 490.744 599.286 504.7C594.028 514.242 589.303 524.116 584.815 533.495C582.744 537.824 580.723 542.047 578.723 546.084C576.454 550.635 574.057 555.837 571.49 561.409C565.808 573.739 559.294 587.876 551.497 600.756C540.171 619.464 526.307 635.21 508.711 638.783C493.007 641.905 478.011 633.266 466.05 622.703Z" stroke="url(#paint8_linear_0_7)" stroke-opacity="0.5" stroke-width="1.5" stroke-miterlimit="10"/>
<path d="M462.661 640.233L462.662 640.235C475.816 652.06 492.665 661.911 509.904 658.476L509.908 658.475C529.602 654.662 545.028 637.159 557.565 616.379C566.201 602.065 573.384 586.346 579.627 572.684C582.444 566.52 585.069 560.775 587.55 555.767L587.55 555.766C589.878 551.078 592.227 546.16 594.637 541.115C599.504 530.928 604.617 520.225 610.289 509.866C618.778 494.362 628.566 479.534 640.776 468.172L640.779 468.169C645.458 463.855 650.4 460.199 655.587 456.979L655.595 456.974L655.603 456.969C664.315 451.848 673.501 449.631 682.554 447.446C684.128 447.066 685.697 446.688 687.26 446.295C697.843 443.633 708.182 440.313 717.649 431.753C727.085 423.222 735.322 405.695 739.552 385.265C743.773 364.884 743.971 341.778 737.5 322.137C737.35 321.851 737.266 321.531 737.206 321.304L737.197 321.268C737.117 320.968 737.068 320.801 737.004 320.691L736.968 320.629L736.944 320.561C731.868 305.92 724.041 296.724 716.521 289.458C692.284 266.388 660.995 252.726 628.643 263.905C625.203 265.113 621.497 263.546 617.929 260.608C613.688 257.182 609.274 251.698 604.823 245.518C602.252 241.948 599.637 238.1 597.025 234.256C595.123 231.457 593.221 228.66 591.339 225.972C586.845 219.557 582.425 213.719 578.191 209.698C573.916 205.64 570.042 203.636 566.595 204.391C555.793 206.801 545.416 212.277 535.197 219.138C527.203 224.505 519.344 230.693 511.468 236.893C509.271 238.622 507.073 240.353 504.87 242.067C484.749 257.724 464.227 272.037 441.432 270.601L441.43 270.601C423.094 269.394 406.213 272.4 389.425 276.52C383.965 277.86 378.506 279.321 373.008 280.792C361.635 283.835 350.097 286.923 338.046 289.077M462.661 640.233L337.914 288.338M462.661 640.233C453.17 631.747 444.749 621.861 436.399 611.79C435.479 610.681 434.56 609.569 433.64 608.457C426.224 599.486 418.777 590.478 410.631 582.348M462.661 640.233L410.097 582.875M338.046 289.077L337.914 288.338M338.046 289.077C338.047 289.077 338.047 289.076 338.048 289.076L337.914 288.338M338.046 289.077C335.589 289.523 332.827 289.111 329.885 288.128C326.937 287.144 323.755 285.567 320.432 283.623C314.32 280.046 307.645 275.171 300.988 270.308C300.413 269.889 299.839 269.469 299.266 269.051C292.019 263.765 284.852 258.628 278.419 255.234C275.205 253.538 272.206 252.294 269.498 251.681C266.79 251.067 264.425 251.094 262.435 251.875L262.431 251.876C251.702 256.012 243.371 264.44 236.842 275.571C230.311 286.706 225.612 300.5 222.132 315.275C216.236 340.315 213.871 368.045 211.981 390.213C211.64 394.213 211.314 398.032 210.986 401.621M337.914 288.338C329.132 289.937 315.328 279.854 301.423 269.697C286.374 258.706 271.208 247.628 262.161 251.176C221.754 266.75 215.353 341.834 211.232 390.162C210.892 394.159 210.566 397.972 210.239 401.554M210.986 401.621C210.986 401.62 210.986 401.62 210.986 401.619L210.239 401.554M210.986 401.621C210.986 401.621 210.986 401.622 210.986 401.622L210.239 401.554M210.986 401.621C209.287 421.188 210.721 441.245 213.697 461.014M210.239 401.554C208.533 421.2 209.974 441.321 212.956 461.127M212.956 461.127L213.697 461.013C213.697 461.014 213.697 461.014 213.697 461.014M212.956 461.127C221.054 513.934 251.667 563.378 310.093 557.175M212.956 461.127L213.697 461.015C213.697 461.015 213.697 461.015 213.697 461.014M213.697 461.014C217.732 487.327 227.37 512.739 243.215 530.785C259.035 548.802 281.061 559.503 310.014 556.429M310.093 557.175L310.012 556.43C310.013 556.43 310.013 556.429 310.014 556.429M310.093 557.175C337.974 554.154 360.819 552.549 382.363 562.57M310.093 557.175L310.014 556.429M310.014 556.429C337.873 553.411 360.919 551.769 382.676 561.889M382.363 562.57L382.676 561.888C382.676 561.888 382.676 561.889 382.676 561.889M382.363 562.57C391.756 566.887 400.84 573.443 410.097 582.875M382.363 562.57L382.679 561.89C382.678 561.889 382.677 561.889 382.676 561.889M382.676 561.889C392.167 566.25 401.323 572.865 410.631 582.348M410.097 582.875L410.627 582.345C410.628 582.346 410.629 582.347 410.631 582.348M410.097 582.875L410.633 582.35C410.632 582.349 410.631 582.349 410.631 582.348" stroke="url(#paint9_linear_0_7)" stroke-opacity="0.5" stroke-width="1.5" stroke-miterlimit="10"/>
<path d="M459.277 657.769L459.273 657.766C448.944 648.331 439.849 637.431 430.796 626.347C430.024 625.401 429.252 624.454 428.48 623.507C420.208 613.361 411.887 603.153 402.642 593.932C392.395 583.62 382.315 576.398 372.137 571.636C348.52 560.291 323.471 562.056 292.96 565.457L292.959 565.457C261.145 569.036 236.94 557.247 219.56 537.382C202.154 517.487 191.579 489.466 187.168 460.621L187.167 460.621C183.862 439.091 182.087 417.058 184.095 395.257L184.095 395.256C184.472 391.117 184.845 386.694 185.237 382.049C187.279 357.832 189.829 327.589 196.191 300.216C199.982 283.909 205.116 268.666 212.275 256.352C219.432 244.041 228.585 234.704 240.399 230.115C242.605 229.265 245.225 229.259 248.216 229.964C251.208 230.668 254.518 232.072 258.062 233.975C265.154 237.784 273.054 243.522 281.034 249.416C281.646 249.868 282.259 250.322 282.872 250.775C290.224 256.212 297.588 261.659 304.327 265.654C307.979 267.819 311.474 269.574 314.706 270.672C317.932 271.767 320.952 272.228 323.631 271.74C337.045 269.409 349.896 265.968 362.582 262.571C368.477 260.993 374.337 259.424 380.2 257.98C398.717 253.422 417.357 250.088 437.598 251.512C462.536 253.266 484.917 237.388 506.878 219.956C509.317 218.02 511.75 216.065 514.183 214.11C522.744 207.232 531.291 200.365 539.991 194.402C551.157 186.748 562.511 180.632 574.353 177.938L574.357 177.937C578.117 177.059 582.347 179.29 587.009 183.811C591.627 188.29 596.45 194.804 601.351 201.959C603.413 204.969 605.494 208.101 607.576 211.234C610.416 215.508 613.256 219.783 616.051 223.752C620.9 230.64 625.699 236.742 630.297 240.536C634.329 243.885 638.261 245.66 642.141 244.44L642.151 244.437L642.161 244.433C677.788 232.166 712.072 247.422 738.442 272.588C746.666 280.475 755.213 290.515 760.827 306.679L760.833 306.696L760.84 306.713C760.952 306.99 761.014 307.223 761.086 307.496L761.088 307.505C761.158 307.77 761.239 308.074 761.381 308.433C768.432 330.048 768.21 355.507 763.582 377.953C758.946 400.435 749.925 419.73 739.54 429.095C729.12 438.49 717.743 442.15 706.118 445.097C704.427 445.526 702.729 445.94 701.027 446.354C691.065 448.782 680.976 451.241 671.419 456.896C665.54 460.17 660.175 464.305 655.085 469.082C641.603 481.522 630.848 497.853 621.564 514.931C615.318 526.421 609.716 538.292 604.399 549.56C601.82 555.027 599.307 560.352 596.82 565.423C594.023 571.029 591.059 577.504 587.872 584.465C581.051 599.364 573.209 616.491 563.807 632.101C550.006 655.014 533.021 674.328 511.341 678.374C492.101 681.936 473.626 671.068 459.277 657.769Z" stroke="url(#paint10_linear_0_7)" stroke-opacity="0.5" stroke-width="1.5" stroke-miterlimit="10"/>
<path d="M455.887 675.299L455.885 675.297C444.718 664.914 434.892 653.002 425.137 640.879C424.139 639.638 423.141 638.396 422.143 637.152C413.397 626.255 404.602 615.297 394.874 605.292L394.871 605.29C383.904 594.131 373.115 586.283 362.017 581.13C336.131 569.038 309.312 570.908 276.136 574.47L276.133 574.471C241.218 578.348 214.772 565.419 195.832 543.705C176.867 521.962 165.413 491.385 160.625 460.008L160.625 460.007C156.979 436.507 155.303 412.467 157.413 388.654C157.836 383.977 158.252 378.962 158.69 373.686C160.878 347.314 163.607 314.431 170.442 284.646C174.542 266.779 180.11 250.074 187.898 236.587C195.684 223.104 205.659 212.886 218.561 207.898C220.984 206.98 223.858 206.992 227.132 207.782C230.407 208.573 234.028 210.129 237.901 212.231C245.651 216.437 254.282 222.755 262.994 229.243C263.691 229.763 264.39 230.284 265.088 230.805C273.086 236.77 281.09 242.739 288.411 247.136C292.393 249.527 296.2 251.47 299.717 252.695C303.227 253.919 306.506 254.448 309.409 253.948L309.414 253.947C323.742 251.367 337.478 247.648 351.04 243.976C357.734 242.163 364.385 240.362 371.044 238.715C391.231 233.723 411.58 230.119 433.726 231.76L433.727 231.76C460.687 233.726 484.929 216.342 508.733 197.19C511.443 195.01 514.147 192.806 516.85 190.603C526.062 183.097 535.263 175.6 544.622 169.073C556.723 160.634 569.026 153.865 581.848 150.835C585.93 149.884 590.509 152.373 595.536 157.372C600.518 162.324 605.717 169.516 610.997 177.411C613.23 180.75 615.483 184.223 617.736 187.697C620.785 192.398 623.834 197.1 626.836 201.471C632.061 209.079 637.23 215.822 642.184 220.039C646.463 223.816 650.869 225.814 654.981 224.336C693.882 210.985 731.142 227.615 759.653 255.089C768.585 263.808 777.834 274.672 783.985 292.303C784.053 293.05 784.338 293.756 784.575 294.344L784.586 294.371C792.311 317.943 792.064 345.735 787.031 370.232C781.99 394.766 772.185 415.83 760.957 426.023L760.956 426.023C749.592 436.363 737.234 440.36 724.596 443.562C722.731 444.035 720.857 444.49 718.98 444.947C708.167 447.576 697.206 450.242 686.754 456.414C680.236 460.172 674.456 464.776 668.945 469.792L668.936 469.8C654.309 483.53 642.646 501.415 632.566 520.068C625.918 532.371 619.937 545.051 614.25 557.109C611.322 563.318 608.471 569.361 605.648 575.103C602.727 581.027 599.627 587.844 596.294 595.172C588.827 611.588 580.193 630.572 569.799 647.839C554.76 672.825 536.21 693.899 512.547 698.287C491.774 702.163 471.433 689.864 455.887 675.299Z" stroke="url(#paint11_linear_0_7)" stroke-opacity="0.5" stroke-width="1.5" stroke-miterlimit="10"/>
<path d="M452.495 692.828L452.496 692.829C469.233 708.655 491.208 722.184 513.961 717.966L513.965 717.965C539.727 713.338 559.839 690.506 576.089 663.448C587.323 644.743 596.627 624.173 604.656 606.423C608.237 598.506 611.565 591.15 614.696 584.771M452.495 692.828L615.37 585.101M452.495 692.828C440.489 681.494 429.936 668.626 419.428 655.575C418.63 654.585 417.833 653.594 417.036 652.602C407.333 640.535 397.576 628.401 386.69 617.332L386.688 617.33C374.777 605.339 363.299 597.093 351.282 591.332L351.278 591.33C323.549 578.239 294.721 580.007 258.889 583.953L258.885 583.954C220.996 588.343 192.37 574.325 171.899 550.763C151.401 527.17 139.064 493.981 133.901 460.072L133.9 460.07C129.897 434.366 127.88 408.351 130.313 382.526L130.313 382.526C130.843 376.878 131.359 370.769 131.904 364.314C134.284 336.137 137.218 301.392 144.375 269.817C148.772 250.419 154.754 232.266 163.153 217.601C171.55 202.939 182.335 191.812 196.322 186.371C198.932 185.36 202.037 185.37 205.579 186.232C209.12 187.094 213.04 188.793 217.237 191.087C225.633 195.677 235.003 202.575 244.46 209.656C245.206 210.215 245.953 210.775 246.699 211.334C255.396 217.854 264.1 224.381 272.054 229.186C276.375 231.797 280.501 233.916 284.308 235.254C288.108 236.589 291.649 237.166 294.773 236.624L294.775 236.624C310.463 233.867 325.51 229.794 340.383 225.769C347.477 223.849 354.532 221.939 361.597 220.189C383.512 214.759 405.622 210.827 429.673 212.685M452.495 692.828L429.731 211.937M614.696 584.771L615.37 585.101M614.696 584.771C614.696 584.772 614.696 584.772 614.695 584.773L615.37 585.101M614.696 584.771C617.677 578.651 620.687 572.206 623.782 565.581C629.922 552.438 636.394 538.585 643.619 525.146C654.495 504.917 667.125 485.529 683.026 470.721L683.028 470.719C688.964 465.226 695.171 460.379 702.094 456.158L702.102 456.153C713.395 449.445 725.299 446.534 737.047 443.661C739.064 443.167 741.077 442.675 743.081 442.165C756.788 438.676 770.182 434.339 782.387 423.172C794.562 412.033 805.154 389.254 810.603 362.726C816.044 336.233 816.321 306.162 808.023 280.513M615.37 585.101C618.361 578.959 621.377 572.502 624.475 565.871C639.841 532.977 657.217 495.78 683.538 471.27C689.443 465.804 695.611 460.99 702.485 456.798C713.674 450.152 725.457 447.269 737.207 444.394C753 440.53 768.735 436.68 782.893 423.726C807.585 401.134 825.442 331.876 808.729 280.257M808.023 280.513L808.033 280.538L808.729 280.257M808.023 280.513L808.013 280.489C807.776 279.901 807.492 279.195 807.424 278.449M808.023 280.513C808.021 280.505 808.018 280.497 808.015 280.488L808.729 280.257M808.729 280.257C808.467 279.607 808.205 278.957 808.164 278.293M781.416 237.497C750.442 207.839 710.124 189.406 667.573 203.974C663.424 205.336 659.295 203.365 654.602 199.43C646.367 192.239 637.446 178.282 628.489 164.27C614.684 142.672 600.796 120.944 589.208 123.666M781.416 237.497L780.894 238.036C780.895 238.036 780.895 238.037 780.895 238.037M781.416 237.497C791.353 247.111 801.437 259.158 808.164 278.293M781.416 237.497L780.897 238.039C780.897 238.038 780.896 238.038 780.895 238.037M780.895 238.037C750.025 208.478 709.992 190.244 667.816 204.684L667.807 204.687C663.253 206.181 658.837 203.959 654.121 200.005L654.115 200L654.109 199.995C648.797 195.356 643.241 187.983 637.62 179.671C634.395 174.901 631.12 169.777 627.846 164.656C625.421 160.862 622.997 157.071 620.595 153.425C614.924 144.817 609.344 136.975 604.009 131.568C601.343 128.865 598.768 126.802 596.306 125.552C593.851 124.306 591.549 123.887 589.381 124.396M780.895 238.037C790.763 247.584 800.748 259.513 807.424 278.449M589.381 124.396C589.381 124.396 589.382 124.396 589.382 124.396L589.208 123.666M589.381 124.396C589.38 124.396 589.38 124.396 589.38 124.396L589.208 123.666M589.381 124.396C575.519 127.71 562.24 135.12 549.192 144.352C539.124 151.475 529.232 159.652 519.332 167.837C516.396 170.264 513.459 172.692 510.517 175.094C497.673 185.575 484.735 195.537 471.391 202.593C458.04 209.653 444.238 213.827 429.673 212.685M589.208 123.666C564.412 129.594 541.58 148.47 518.839 167.271C490.234 190.921 461.773 214.451 429.731 211.937M429.731 211.937L429.673 212.685M429.731 211.937L429.672 212.685C429.672 212.685 429.672 212.685 429.673 212.685M807.424 278.449C807.421 278.412 807.418 278.375 807.416 278.338L808.164 278.293M807.424 278.449C807.435 278.48 807.446 278.511 807.457 278.542L808.164 278.293" stroke="url(#paint12_linear_0_7)" stroke-opacity="0.5" stroke-width="1.5" stroke-miterlimit="10"/>
<path d="M449.109 710.361L449.106 710.359C436.261 698.075 424.979 684.196 413.685 670.164C413.225 669.591 412.764 669.019 412.303 668.446C401.478 654.99 390.584 641.448 378.274 629.166C365.625 616.103 352.996 607.263 340.295 601.104L340.29 601.102C310.718 587.01 279.891 588.901 241.408 593.229L241.407 593.229C200.641 597.904 169.828 582.743 147.797 557.331C125.739 531.889 112.468 496.148 106.929 459.709C102.804 432.011 100.666 404.003 103.201 376.171L103.201 376.17C103.73 370.274 104.245 363.906 104.788 357.182C107.253 326.683 110.31 288.858 118.002 254.508C122.694 233.551 129.103 213.936 138.127 198.098C147.149 182.264 158.757 170.257 173.831 164.416C176.659 163.336 180.018 163.368 183.843 164.321C187.667 165.274 191.899 167.134 196.425 169.635C205.48 174.64 215.583 182.139 225.773 189.828C226.558 190.421 227.343 191.014 228.129 191.607C237.519 198.702 246.914 205.8 255.494 211.024C260.145 213.856 264.582 216.153 268.674 217.604C272.759 219.052 276.557 219.676 279.903 219.093L279.905 219.092C296.786 216.113 312.943 211.695 328.918 207.328C336.538 205.244 344.116 203.172 351.712 201.273C375.268 195.383 399.084 191.126 425.15 193.195C440.782 194.44 455.595 189.939 469.925 182.313C484.248 174.691 498.133 163.922 511.913 152.578C515.15 149.913 518.381 147.217 521.611 144.522C532.15 135.728 542.678 126.942 553.388 119.272C567.374 109.255 581.603 101.191 596.446 97.5411C598.804 96.967 601.297 97.4126 603.944 98.7583C606.6 100.108 609.37 102.344 612.233 105.276C617.96 111.14 623.936 119.659 630 129.006C632.591 132.999 635.204 137.154 637.816 141.307C641.291 146.834 644.766 152.359 648.188 157.503C654.189 166.524 660.116 174.514 665.785 179.521C670.781 183.933 675.63 186.105 680.392 184.607L680.402 184.604L680.411 184.601C725.418 169.101 768.651 188.697 801.666 220.568L801.667 220.569C812.491 230.962 823.209 243.757 830.201 264.277L830.208 264.297L830.216 264.316C830.339 264.623 830.468 264.987 830.604 265.372L830.607 265.38C830.736 265.745 830.871 266.128 831.005 266.464C839.979 294.07 839.676 326.474 833.83 355.018C827.976 383.598 816.6 408.146 803.583 420.113L803.583 420.114C790.434 432.225 776.003 436.902 761.254 440.648C759.087 441.199 756.912 441.729 754.733 442.261C742.105 445.34 729.327 448.456 717.218 455.683L717.213 455.686C709.859 460.156 703.012 465.486 696.656 471.452L696.652 471.455C679.718 487.547 666.236 508.484 654.593 530.285C647.012 544.479 640.19 559.084 633.704 572.97C630.236 580.394 626.864 587.613 623.524 594.453L623.523 594.454C620.267 601.148 616.804 608.842 613.078 617.121C604.406 636.387 594.309 658.819 582.082 679.185C564.594 708.316 542.918 732.908 515.173 737.878C490.863 742.194 467.044 727.663 449.109 710.361Z" stroke="url(#paint13_linear_0_7)" stroke-opacity="0.5" stroke-width="1.5" stroke-miterlimit="10"/>
<path d="M516.719 758.295C490.054 763.019 464.362 747.031 445.194 728.428C430.57 714.285 417.918 698.256 405.228 682.179C394.103 668.085 382.948 653.953 370.408 641.019L516.719 758.295ZM516.719 758.295C568.143 749.319 599.829 678.416 622.278 628.181M516.719 758.295L622.278 628.181M622.278 628.181C626.192 619.422 629.825 611.292 633.233 604.228L622.278 628.181ZM445.717 727.889L445.716 727.888C432.034 714.657 420.077 699.764 408.165 684.688C407.38 683.695 406.596 682.701 405.811 681.707C394.692 667.619 383.514 653.459 370.946 640.497L370.944 640.494C357.356 626.601 344.02 617.135 330.398 610.585L330.396 610.584C298.76 595.507 265.704 597.31 224.787 602.008L224.786 602.008C180.926 607.092 147.88 590.899 124.294 563.695C100.68 536.46 86.5302 498.163 80.6076 459.081C76.1545 429.629 73.8822 399.407 76.518 369.569C77.0962 363.125 77.6566 356.145 78.2492 348.763C80.8637 316.201 84.1053 275.828 92.2638 239.132C97.2666 216.63 104.109 195.559 113.762 178.552C123.414 161.548 135.845 148.659 152.009 142.42L152.009 142.42C155.052 141.244 158.665 141.277 162.771 142.307C166.877 143.336 171.419 145.347 176.274 148.05C185.987 153.458 196.822 161.565 207.746 169.877C208.607 170.532 209.469 171.189 210.331 171.845C220.378 179.499 230.424 187.152 239.596 192.789C244.577 195.851 249.327 198.335 253.703 199.903C258.073 201.47 262.13 202.146 265.698 201.521L265.699 201.52C283.666 198.338 300.886 193.635 317.923 188.982C326.2 186.721 334.434 184.472 342.69 182.416C367.974 176.116 393.555 171.585 421.528 173.871L421.528 173.871C438.17 175.222 453.94 170.4 469.2 162.21C484.454 154.024 499.243 142.45 513.932 130.247C517.398 127.366 520.858 124.452 524.318 121.538C535.539 112.087 546.756 102.639 558.172 94.3787C573.102 83.5762 588.307 74.8571 604.188 70.8672C606.677 70.2591 609.316 70.748 612.122 72.2048C614.937 73.6658 617.876 76.0792 620.915 79.2384C626.995 85.5576 633.352 94.7264 639.807 104.786C642.567 109.086 645.35 113.558 648.133 118.031C651.834 123.978 655.536 129.926 659.182 135.47C665.577 145.192 671.889 153.81 677.915 159.238L677.921 159.243C683.125 163.839 688.464 166.467 693.463 164.711C741.745 148.126 787.955 169.097 823.112 203.278L823.117 203.282C834.644 214.296 846.081 227.933 853.61 249.971C853.751 250.416 853.888 250.804 854.021 251.18L854.022 251.184C854.066 251.307 854.109 251.429 854.152 251.552C854.242 251.809 854.331 252.071 854.421 252.357L854.422 252.361C863.969 281.939 863.697 316.685 857.5 347.285C851.296 377.913 839.191 404.224 825.225 417.025L825.224 417.026C811.124 429.972 795.653 434.934 779.86 438.938C777.65 439.499 775.431 440.04 773.209 440.583C759.584 443.911 745.808 447.277 732.774 455.187L732.768 455.191C724.783 460.139 717.505 465.717 710.727 472.157C692.528 489.435 678.078 511.875 665.638 535.224C657.434 550.622 650.082 566.46 643.107 581.487C639.512 589.23 636.018 596.759 632.558 603.901L632.558 603.902C629.133 611.001 625.49 619.153 621.569 627.926C612.309 648.65 601.501 672.834 588.37 694.766C569.673 725.997 546.434 752.347 516.59 757.556L516.588 757.557C490.296 762.215 464.843 746.452 445.717 727.889Z" stroke="url(#paint14_linear_0_7)" stroke-opacity="0.5" stroke-width="1.5" stroke-miterlimit="10"/>
<path d="M641.399 613.802L641.398 613.805C637.805 621.269 633.979 629.838 629.859 639.065C619.985 661.178 608.427 687.062 594.365 710.531C574.427 743.807 549.625 771.917 517.798 777.47C489.952 782.224 462.877 765.449 442.325 745.418C427.805 731.237 415.119 715.333 402.454 699.357L401.492 698.144C389.16 682.583 376.804 666.993 362.79 652.979C348.484 638.243 334.442 628.153 319.903 621.213L319.901 621.212C286.439 605.359 251.374 607.06 207.804 612.141C160.955 617.518 125.724 600.18 100.606 571.126C75.4599 542.041 60.4309 501.188 54.1322 459.574L54.1321 459.573C49.3365 428.144 46.9438 395.932 49.9025 364.077L49.9025 364.077C50.5821 356.705 51.2343 348.676 51.9257 340.166C54.7258 305.696 58.1677 263.327 66.6696 224.747C71.9688 200.699 79.2247 178.174 89.4884 159.985C99.7508 141.799 112.99 128.001 130.24 121.308L130.243 121.307C133.473 120.039 137.313 120.072 141.68 121.173C146.046 122.273 150.879 124.427 156.046 127.323C166.385 133.117 177.93 141.805 189.573 150.712C190.478 151.404 191.383 152.098 192.288 152.791C203.011 161.004 213.734 169.218 223.523 175.267C228.833 178.548 233.894 181.21 238.554 182.891C243.208 184.569 247.522 185.293 251.311 184.626L251.313 184.626C270.473 181.22 288.83 176.171 306.995 171.174C315.808 168.749 324.577 166.337 333.37 164.131C360.325 157.37 387.611 152.514 417.489 155.017C435.2 156.526 451.969 151.393 468.19 142.631C484.405 133.873 500.119 121.465 515.728 108.373C519.424 105.273 523.114 102.135 526.803 98.9972C538.715 88.8665 550.626 78.7365 562.754 69.8799C578.632 58.284 594.815 48.9235 611.736 44.6492L611.737 44.6491C614.387 43.9775 617.189 44.4905 620.161 46.0427C623.141 47.5993 626.249 50.1798 629.46 53.5608C635.883 60.3236 642.594 70.1504 649.414 80.9374C652.284 85.4769 655.178 90.1942 658.074 94.9154C662.036 101.373 666.002 107.838 669.917 113.865C676.697 124.302 683.406 133.558 689.846 139.407C695.34 144.681 700.889 147.274 706.319 145.505L706.33 145.501C757.885 127.829 806.867 150.405 844.381 186.668C856.632 198.53 868.79 213.015 876.857 236.581L876.864 236.6L876.871 236.618C877.12 237.236 877.386 238.076 877.665 238.958L877.666 238.961C887.777 270.503 887.48 307.583 880.877 340.235C874.269 372.915 861.38 400.993 846.463 414.628L846.46 414.631C831.415 428.521 814.962 433.82 798.156 438.08C795.771 438.685 793.378 439.268 790.98 439.853C776.508 443.382 761.863 446.954 747.935 455.378C739.493 460.36 731.794 466.412 724.604 473.318C705.245 491.666 689.885 515.604 676.65 540.526C668.067 556.688 660.356 573.31 653.029 589.104C649.066 597.647 645.215 605.948 641.399 613.802Z" stroke="url(#paint15_linear_0_7)" stroke-opacity="0.5" stroke-width="1.5" stroke-miterlimit="10"/>
<path d="M22.9718 357.045C23.7065 349.098 24.4094 340.413 25.1558 331.19C28.1054 294.745 31.7346 249.905 40.6883 209.025C46.2968 183.419 53.9854 159.416 64.8771 140.041C75.7673 120.669 89.8291 105.975 108.167 98.8835L108.17 98.8826C111.588 97.5474 115.662 97.6031 120.298 98.7965C124.932 99.9895 130.066 102.304 135.559 105.408C146.546 111.617 158.831 120.906 171.22 130.42C172.133 131.121 173.047 131.824 173.96 132.526C185.422 141.337 196.89 150.154 207.349 156.638C212.997 160.14 218.378 162.979 223.328 164.772C228.272 166.563 232.847 167.333 236.858 166.625L236.859 166.625C257.106 163.016 276.527 157.681 295.755 152.399C305.225 149.797 314.648 147.209 324.1 144.845C352.784 137.674 381.835 132.544 413.619 135.265C432.396 136.877 450.175 131.403 467.375 122.058C484.567 112.717 501.226 99.4807 517.771 85.513C521.712 82.1851 525.647 78.8162 529.582 75.4475C542.181 64.6605 554.776 53.8761 567.595 44.4462C584.412 32.0752 601.545 22.0889 619.45 17.5333L619.451 17.5331C622.867 16.6602 626.532 17.6726 630.461 20.2837C634.391 22.8958 638.496 27.0505 642.727 32.2764C651.104 42.6217 659.844 56.9901 668.607 71.396L668.875 71.8362C677.709 86.3587 686.563 100.88 695.034 111.156C699.268 116.292 703.444 120.417 707.515 122.949C711.593 125.485 715.654 126.474 719.571 125.158L719.573 125.157C774.196 106.631 826.158 130.583 865.816 169.158L865.818 169.16C878.771 181.642 891.664 197.192 900.27 222.283L900.27 222.284C911.835 255.842 911.819 295.731 904.871 330.957C897.918 366.211 884.055 396.624 868.089 411.322C852.091 426.048 834.601 431.687 816.753 436.232C814.24 436.872 811.717 437.491 809.191 438.111C793.806 441.884 778.254 445.698 763.48 454.66C734.958 471.909 713.52 499.979 695.811 530.739C683.316 552.442 672.645 575.547 662.654 597.18C658.491 606.195 654.445 614.954 650.435 623.25L650.434 623.251C646.638 631.152 642.59 640.242 638.226 650.038C627.767 673.52 615.499 701.062 600.565 726.034C579.392 761.441 553.029 791.364 519.213 797.148C489.384 802.245 460.675 784.238 438.933 762.946L438.408 763.482L438.932 762.946C423.582 747.927 410.17 731.068 396.805 714.08C396.196 713.306 395.587 712.532 394.978 711.757C382.231 695.548 369.45 679.293 355.028 664.554L354.492 665.078L355.028 664.554C329.887 638.883 305.487 626.058 279.023 620.65C252.592 615.249 224.152 617.258 190.976 621.155C141.145 626.934 103.73 608.452 77.0497 577.522C50.342 546.561 34.3753 503.098 27.5896 458.959L26.8483 459.073L27.5896 458.959C22.4519 425.553 19.9248 391.127 22.9718 357.045ZM22.9718 357.045C22.9717 357.046 22.9717 357.046 22.9716 357.047L22.2248 356.978L22.9718 357.045C22.9718 357.045 22.9718 357.045 22.9718 357.045Z" stroke="url(#paint16_linear_0_7)" stroke-opacity="0.5" stroke-width="1.5" stroke-miterlimit="10"/>
<defs>
<linearGradient id="paint0_linear_0_7" x1="489.348" y1="441.352" x2="491.891" y2="483.351" gradientUnits="userSpaceOnUse">
<stop stop-color="white" stop-opacity="0.05"/>
<stop offset="1" stop-color="white" stop-opacity="0"/>
</linearGradient>
<linearGradient id="paint1_linear_0_7" x1="486.648" y1="417.653" x2="491.771" y2="502.251" gradientUnits="userSpaceOnUse">
<stop stop-color="white" stop-opacity="0.05"/>
<stop offset="1" stop-color="white" stop-opacity="0"/>
</linearGradient>
<linearGradient id="paint2_linear_0_7" x1="484.005" y1="391.634" x2="491.889" y2="521.836" gradientUnits="userSpaceOnUse">
<stop stop-color="white" stop-opacity="0.05"/>
<stop offset="1" stop-color="white" stop-opacity="0"/>
</linearGradient>
<linearGradient id="paint3_linear_0_7" x1="481.495" y1="365.798" x2="492.144" y2="541.654" gradientUnits="userSpaceOnUse">
<stop stop-color="white" stop-opacity="0.05"/>
<stop offset="1" stop-color="white" stop-opacity="0"/>
</linearGradient>
<linearGradient id="paint4_linear_0_7" x1="478.626" y1="339.749" x2="492.05" y2="561.419" gradientUnits="userSpaceOnUse">
<stop stop-color="white" stop-opacity="0.05"/>
<stop offset="1" stop-color="white" stop-opacity="0"/>
</linearGradient>
<linearGradient id="paint5_linear_0_7" x1="476.023" y1="313.681" x2="492.231" y2="581.335" gradientUnits="userSpaceOnUse">
<stop stop-color="white" stop-opacity="0.05"/>
<stop offset="1" stop-color="white" stop-opacity="0"/>
</linearGradient>
<linearGradient id="paint6_linear_0_7" x1="473.805" y1="287.619" x2="492.8" y2="601.295" gradientUnits="userSpaceOnUse">
<stop stop-color="white" stop-opacity="0.05"/>
<stop offset="1" stop-color="white" stop-opacity="0"/>
</linearGradient>
<linearGradient id="paint7_linear_0_7" x1="470.798" y1="261.575" x2="492.57" y2="621.092" gradientUnits="userSpaceOnUse">
<stop stop-color="white" stop-opacity="0.05"/>
<stop offset="1" stop-color="white" stop-opacity="0"/>
</linearGradient>
<linearGradient id="paint8_linear_0_7" x1="468.138" y1="235.51" x2="492.683" y2="640.815" gradientUnits="userSpaceOnUse">
<stop stop-color="white" stop-opacity="0.05"/>
<stop offset="1" stop-color="white" stop-opacity="0"/>
</linearGradient>
<linearGradient id="paint9_linear_0_7" x1="465.545" y1="209.678" x2="492.852" y2="660.592" gradientUnits="userSpaceOnUse">
<stop stop-color="white" stop-opacity="0.05"/>
<stop offset="1" stop-color="white" stop-opacity="0"/>
</linearGradient>
<linearGradient id="paint10_linear_0_7" x1="463.093" y1="183.821" x2="493.173" y2="680.533" gradientUnits="userSpaceOnUse">
<stop stop-color="white" stop-opacity="0.05"/>
<stop offset="1" stop-color="white" stop-opacity="0"/>
</linearGradient>
<linearGradient id="paint11_linear_0_7" x1="460.404" y1="157.33" x2="493.3" y2="700.531" gradientUnits="userSpaceOnUse">
<stop stop-color="white" stop-opacity="0.05"/>
<stop offset="1" stop-color="white" stop-opacity="0"/>
</linearGradient>
<linearGradient id="paint12_linear_0_7" x1="457.621" y1="131.509" x2="493.278" y2="720.32" gradientUnits="userSpaceOnUse">
<stop stop-color="white" stop-opacity="0.05"/>
<stop offset="1" stop-color="white" stop-opacity="0"/>
</linearGradient>
<linearGradient id="paint13_linear_0_7" x1="454.656" y1="105.239" x2="493.114" y2="740.296" gradientUnits="userSpaceOnUse">
<stop stop-color="white" stop-opacity="0.05"/>
<stop offset="1" stop-color="white" stop-opacity="0"/>
</linearGradient>
<linearGradient id="paint14_linear_0_7" x1="452.133" y1="79.1808" x2="493.366" y2="760.069" gradientUnits="userSpaceOnUse">
<stop stop-color="white" stop-opacity="0.05"/>
<stop offset="1" stop-color="white" stop-opacity="0"/>
</linearGradient>
<linearGradient id="paint15_linear_0_7" x1="449.412" y1="53.5621" x2="493.406" y2="780.034" gradientUnits="userSpaceOnUse">
<stop stop-color="white" stop-opacity="0.05"/>
<stop offset="1" stop-color="white" stop-opacity="0"/>
</linearGradient>
<linearGradient id="paint16_linear_0_7" x1="446.824" y1="27.0587" x2="493.62" y2="799.81" gradientUnits="userSpaceOnUse">
<stop stop-color="white" stop-opacity="0.05"/>
<stop offset="1" stop-color="white" stop-opacity="0"/>
</linearGradient>
</defs>
</svg>
