<?xml version="1.0" encoding="utf-8"?>
<!-- Generator: Adobe Illustrator 23.0.3, SVG Export Plug-In . SVG Version: 6.00 Build 0)  -->
<svg version="1.1" id="logo" xmlns="http://www.w3.org/2000/svg" xmlns:xlink="http://www.w3.org/1999/xlink" x="0px" y="0px"
	 viewBox="0 0 595.3 595.3" style="enable-background:new 0 0 595.3 595.3;" xml:space="preserve">
<g>
	<path d="M297.8,11.4c158.3,0,286.6,128.4,286.1,287.1C583.3,460.1,450.6,586.8,292,583.8C139.8,580.9,11.3,457,11.4,296.2
		C11.5,139.4,140.2,11.4,297.8,11.4z M569,297.7C568.3,147.4,448.7,28.9,302.4,26.4C151,23.9,27.2,144.8,26.5,296.2
		c-0.7,152.5,121.8,270,266.2,272.6C442.5,571.4,568.3,451.5,569,297.7z"/>
	<path d="M452.9,137.6c2.7,2.7,5.7,5.7,8.4,8.4c-105,105-209.9,209.9-314.9,314.9c-2.5-2.7-5.5-5.9-8.1-8.8
		C242.7,347.7,347.6,242.8,452.9,137.6z"/>
	<path d="M197.5,196.9c-4.7,17.6-9.5,35.2-14.2,52.8c-2.3,8.7-2.3,8.7-11.2,8.7c-2.1,0-4.3,0-6.8,0c-6.9-30-13.8-59.8-20.8-89.9
		c5.7,0,10.9,0,16.4,0c4.4,21,8.7,42,13.1,62.9c0.3,0,0.6,0,0.9,0c5.4-21,10.7-42,16.1-63c4.7,0,9,0,13.9,0
		c5.2,20.8,10.4,41.6,15.7,62.4c0.4,0,0.8,0,1.2,0c4.2-20.6,8.4-41.2,12.7-62.1c5.2,0,10.5,0,16.4,0c-6.9,29.9-13.8,59.7-20.7,89.6
		c-5.4,0-10.3,0-15.7,0c-5.4-20.5-10.7-40.9-16.1-61.4C198.1,196.8,197.8,196.8,197.5,196.9z"/>
	<path d="M357.4,443.4c0-30.1,0-59.9,0-90.7c12.5,0.5,24.9,0,36.9,1.9c14.9,2.4,24.4,12.4,28.5,26.9c3,10.4,3.1,21.1,0.6,31.6
		c-4.3,18.2-17.5,29.3-36.2,30.1C377.5,443.7,367.7,443.4,357.4,443.4z M374,430.2c3.2,0,6.2,0,9.1,0c13.3-0.1,21.9-6.8,24-19.9
		c1.1-7,1.4-14.3,0.6-21.3c-2-17.1-12.6-25.2-33.8-21.4C374,388.2,374,409,374,430.2z"/>
</g>
</svg>
